<svg xmlns="http://www.w3.org/2000/svg" width="477.0478515625" height="251.24615478515625" viewBox="-163.06105041503906 -37.51294708251953 477.0478515625 251.24615478515625"><title>Neo4j Graph Visualization</title><desc>Created using Neo4j (http://www.neo4j.com/)</desc><g class="layer relationships"><g class="relationship" transform="translate(103.91711541461372 -8.512945169394762) rotate(464.7382939911831)"><path class="outline" fill="#A5ABB6" stroke="none" d="M 25 0.5 L 26.150138473362205 0.5 L 26.150138473362205 -0.5 L 25 -0.5 Z M 75.2634197233622 0.5 L 76.41355819672441 0.5 L 76.41355819672441 3.5 L 83.41355819672441 0 L 76.41355819672441 -3.5 L 76.41355819672441 -0.5 L 75.2634197233622 -0.5 Z"/><text text-anchor="middle" pointer-events="none" font-size="8px" fill="#000000" x="50.706779098362205" y="3" transform="rotate(180 50.706779098362205 0)" font-family="sans-serif">OCORRE…</text></g><g class="relationship" transform="translate(76.33623273609628 96.33358320207019) rotate(509.7479939327578)"><path class="outline" fill="#A5ABB6" stroke="none" d="M 25 0.5 L 26.60139558460945 0.5 L 26.60139558460945 -0.5 L 25 -0.5 Z M 80.16389558460945 0.5 L 81.7652911692189 0.5 L 81.7652911692189 3.5 L 88.7652911692189 0 L 81.7652911692189 -3.5 L 81.7652911692189 -0.5 L 80.16389558460945 -0.5 Z"/><text text-anchor="middle" pointer-events="none" font-size="8px" fill="#000000" x="53.38264558460945" y="3" transform="rotate(180 53.38264558460945 0)" font-family="sans-serif">OCORRE_…</text></g><g class="relationship" transform="translate(184.21138631628534 68.99984478594382) rotate(455.664878478976)"><path class="outline" fill="#A5ABB6" stroke="none" d="M 25 0.5 L 27.86942354886679 0.5 L 27.86942354886679 -0.5 L 25 -0.5 Z M 81.43192354886679 0.5 L 84.30134709773358 0.5 L 84.30134709773358 3.5 L 91.30134709773358 0 L 84.30134709773358 -3.5 L 84.30134709773358 -0.5 L 81.43192354886679 -0.5 Z"/><text text-anchor="middle" pointer-events="none" font-size="8px" fill="#000000" x="54.65067354886679" y="3" transform="rotate(180 54.65067354886679 0)" font-family="sans-serif">OCORRE_…</text></g><g class="relationship" transform="translate(184.21138631628534 68.99984478594382) rotate(385.750166477476)"><path class="outline" fill="#A5ABB6" stroke="none" d="M 25 0.5 L 25.661752564524832 0.5 L 25.661752564524832 -0.5 L 25 -0.5 Z M 79.22425256452483 0.5 L 79.88600512904966 0.5 L 79.88600512904966 3.5 L 86.88600512904966 0 L 79.88600512904966 -3.5 L 79.88600512904966 -0.5 L 79.22425256452483 -0.5 Z"/><text text-anchor="middle" pointer-events="none" font-size="8px" fill="#000000" x="52.44300256452483" y="3" font-family="sans-serif">OCORRE_…</text></g><g class="relationship" transform="translate(184.21138631628534 68.99984478594382) rotate(327.870723628134)"><path class="outline" fill="#A5ABB6" stroke="none" d="M 25 0.5 L 26.510423657174158 0.5 L 26.510423657174158 -0.5 L 25 -0.5 Z M 75.62370490717416 0.5 L 77.13412856434832 0.5 L 77.13412856434832 3.5 L 84.13412856434832 0 L 77.13412856434832 -3.5 L 77.13412856434832 -0.5 L 75.62370490717416 -0.5 Z"/><text text-anchor="middle" pointer-events="none" font-size="8px" fill="#000000" x="51.06706428217416" y="3" font-family="sans-serif">OCORRE…</text></g><g class="relationship" transform="translate(184.21138631628534 68.99984478594382) rotate(223.99021870312026)"><path class="outline" fill="#A5ABB6" stroke="none" d="M 25 0.5 L 25.520637392568247 0.5 L 25.520637392568247 -0.5 L 25 -0.5 Z M 79.08313739256825 0.5 L 79.6037747851365 0.5 L 79.6037747851365 3.5 L 86.6037747851365 0 L 79.6037747851365 -3.5 L 79.6037747851365 -0.5 L 79.08313739256825 -0.5 Z"/><text text-anchor="middle" pointer-events="none" font-size="8px" fill="#000000" x="52.30188739256825" y="3" transform="rotate(180 52.30188739256825 0)" font-family="sans-serif">OCORRE_…</text></g><g class="relationship" transform="translate(184.21138631628534 68.99984478594382) rotate(525.781468303089)"><path class="outline" fill="#A5ABB6" stroke="none" d="M 25 0.5 L 25.360869872787468 0.5 L 25.360869872787468 -0.5 L 25 -0.5 Z M 78.92336987278748 0.5 L 79.28423974557494 0.5 L 79.28423974557494 3.5 L 86.28423974557494 0 L 79.28423974557494 -3.5 L 79.28423974557494 -0.5 L 78.92336987278748 -0.5 Z"/><text text-anchor="middle" pointer-events="none" font-size="8px" fill="#000000" x="52.14211987278747" y="3" transform="rotate(180 52.14211987278747 0)" font-family="sans-serif">OCORRE_…</text></g><g class="relationship" transform="translate(-21.936258340632502 153.64901718273038) rotate(190.56126573869096)"><path class="outline" fill="#A5ABB6" stroke="none" d="M 25 0.5 L 26.747241167359057 0.5 L 26.747241167359057 -0.5 L 25 -0.5 Z M 80.30974116735905 0.5 L 82.05698233471811 0.5 L 82.05698233471811 3.5 L 89.05698233471811 0 L 82.05698233471811 -3.5 L 82.05698233471811 -0.5 L 80.30974116735905 -0.5 Z"/><text text-anchor="middle" pointer-events="none" font-size="8px" fill="#000000" x="53.52849116735906" y="3" transform="rotate(180 53.52849116735906 0)" font-family="sans-serif">OCORRE_…</text></g><g class="relationship" transform="translate(-71.16719564057664 53.27118978305952) rotate(423.8740678128742)"><path class="outline" fill="#A5ABB6" stroke="none" d="M 25 0.5 L 25.61909306895876 0.5 L 25.61909306895876 -0.5 L 25 -0.5 Z M 79.18159306895876 0.5 L 79.80068613791752 0.5 L 79.80068613791752 3.5 L 86.80068613791752 0 L 79.80068613791752 -3.5 L 79.80068613791752 -0.5 L 79.18159306895876 -0.5 Z"/><text text-anchor="middle" pointer-events="none" font-size="8px" fill="#000000" x="52.40034306895876" y="3" font-family="sans-serif">OCORRE_…</text></g><g class="relationship" transform="translate(-71.16719564057664 53.27118978305952) rotate(488.35772646978506)"><path class="outline" fill="#A5ABB6" stroke="none" d="M 25 0.5 L 25.28564556970663 0.5 L 25.28564556970663 -0.5 L 25 -0.5 Z M 69.06298931970663 0.5 L 69.34863488941326 0.5 L 69.34863488941326 3.5 L 76.34863488941326 0 L 69.34863488941326 -3.5 L 69.34863488941326 -0.5 L 69.06298931970663 -0.5 Z"/><text text-anchor="middle" pointer-events="none" font-size="8px" fill="#000000" x="47.17431744470663" y="3" transform="rotate(180 47.17431744470663 0)" font-family="sans-serif">OCORR…</text></g><g class="relationship" transform="translate(284.9867729049958 117.60848189534738) rotate(265.52049575626654)"><path class="outline" fill="#A5ABB6" stroke="none" d="M 25 0.5 L 25.431542530934614 0.5 L 25.431542530934614 -0.5 L 25 -0.5 Z M 74.54482378093462 0.5 L 74.97636631186923 0.5 L 74.97636631186923 3.5 L 81.97636631186923 0 L 74.97636631186923 -3.5 L 74.97636631186923 -0.5 L 74.54482378093462 -0.5 Z"/><text text-anchor="middle" pointer-events="none" font-size="8px" fill="#000000" x="49.988183155934614" y="3" transform="rotate(180 49.988183155934614 0)" font-family="sans-serif">OCORRE…</text></g></g><g class="layer nodes"><g class="node" transform="translate(276.6316539281909,10.958892415712421)"><circle class="outline" cx="0" cy="0" r="25" fill="#DA7194" stroke="#cc3c6c" stroke-width="2px"/><text text-anchor="middle" pointer-events="none" font-family="sans-serif" dy="1.5625" font-size="25" fill="#FFFFFF"/><text text-anchor="middle" pointer-events="none" y="5" font-size="10px" fill="#FFFFFF" font-family="sans-serif"> Symptom</text></g><g class="node" transform="translate(103.91711541461372,-8.512945169394762)"><circle class="outline" cx="0" cy="0" r="25" fill="#DA7194" stroke="#cc3c6c" stroke-width="2px"/><text text-anchor="middle" pointer-events="none" font-family="sans-serif" dy="1.5625" font-size="25" fill="#FFFFFF"/><text text-anchor="middle" pointer-events="none" y="5" font-size="10px" fill="#FFFFFF" font-family="sans-serif"> Symptom</text></g><g class="node" transform="translate(76.33623273609628,96.33358320207019)"><circle class="outline" cx="0" cy="0" r="25" fill="#DA7194" stroke="#cc3c6c" stroke-width="2px"/><text text-anchor="middle" pointer-events="none" font-family="sans-serif" dy="1.5625" font-size="25" fill="#FFFFFF"/><text text-anchor="middle" pointer-events="none" y="5" font-size="10px" fill="#FFFFFF" font-family="sans-serif"> Symptom</text></g><g class="node" transform="translate(184.21138631628534,68.99984478594382)"><circle class="outline" cx="0" cy="0" r="25" fill="#DA7194" stroke="#cc3c6c" stroke-width="2px"/><text text-anchor="middle" pointer-events="none" font-family="sans-serif" dy="1.5625" font-size="25" fill="#FFFFFF"/><text text-anchor="middle" pointer-events="none" y="5" font-size="10px" fill="#FFFFFF" font-family="sans-serif"> Symptom</text></g><g class="node" transform="translate(-21.936258340632502,153.64901718273038)"><circle class="outline" cx="0" cy="0" r="25" fill="#DA7194" stroke="#cc3c6c" stroke-width="2px"/><text text-anchor="middle" pointer-events="none" font-family="sans-serif" dy="1.5625" font-size="25" fill="#FFFFFF"/><text text-anchor="middle" pointer-events="none" y="5" font-size="10px" fill="#FFFFFF" font-family="sans-serif"> Symptom</text></g><g class="node" transform="translate(-71.16719564057664,53.27118978305952)"><circle class="outline" cx="0" cy="0" r="25" fill="#DA7194" stroke="#cc3c6c" stroke-width="2px"/><text text-anchor="middle" pointer-events="none" font-family="sans-serif" dy="1.5625" font-size="25" fill="#FFFFFF"/><text text-anchor="middle" pointer-events="none" y="5" font-size="10px" fill="#FFFFFF" font-family="sans-serif"> Symptom</text></g><g class="node" transform="translate(172.73130641796672,184.73320688294558)"><circle class="outline" cx="0" cy="0" r="25" fill="#DA7194" stroke="#cc3c6c" stroke-width="2px"/><text text-anchor="middle" pointer-events="none" font-family="sans-serif" dy="1.5625" font-size="25" fill="#FFFFFF"/><text text-anchor="middle" pointer-events="none" y="5" font-size="10px" fill="#FFFFFF" font-family="sans-serif"> Symptom</text></g><g class="node" transform="translate(284.9867729049958,117.60848189534738)"><circle class="outline" cx="0" cy="0" r="25" fill="#DA7194" stroke="#cc3c6c" stroke-width="2px"/><text text-anchor="middle" pointer-events="none" font-family="sans-serif" dy="1.5625" font-size="25" fill="#FFFFFF"/><text text-anchor="middle" pointer-events="none" y="5" font-size="10px" fill="#FFFFFF" font-family="sans-serif"> Symptom</text></g><g class="node" transform="translate(-134.06105643486342,132.74387734511743)"><circle class="outline" cx="0" cy="0" r="25" fill="#DA7194" stroke="#cc3c6c" stroke-width="2px"/><text text-anchor="middle" pointer-events="none" font-family="sans-serif" dy="1.5625" font-size="25" fill="#FFFFFF"/><text text-anchor="middle" pointer-events="none" y="5" font-size="10px" fill="#FFFFFF" font-family="sans-serif"> Symptom</text></g></g></svg>